<svg width="24" height="24" viewBox="0 0 24 24" fill="none" xmlns="http://www.w3.org/2000/svg">
<path fill-rule="evenodd" clip-rule="evenodd" d="M6 3C5.44772 3 5 3.44772 5 4H4C2.34315 4 1 5.34315 1 7V17C1 18.6569 2.34315 20 4 20H20C21.6569 20 23 18.6569 23 17V7C23 5.34315 21.6569 4 20 4H8C8 3.44772 7.55228 3 7 3H6ZM4 5C2.89543 5 2 5.89543 2 7V9C3.65685 9 5 10.3431 5 12V19H20C21.1046 19 22 18.1046 22 17V7C22 5.89543 21.1046 5 20 5H7H6H4ZM9.5 12C9.5 9.51472 11.5147 7.5 14 7.5C16.4853 7.5 18.5 9.51472 18.5 12C18.5 12.6409 18.3663 13.2493 18.1258 13.7998C18.0152 14.0529 18.1307 14.3476 18.3838 14.4582C18.6368 14.5687 18.9316 14.4532 19.0421 14.2002C19.3368 13.5258 19.5 12.7813 19.5 12C19.5 8.96244 17.0376 6.5 14 6.5C10.9624 6.5 8.5 8.96244 8.5 12C8.5 12.4416 8.55214 12.8715 8.65069 13.2835L7.62625 13.0162C7.35906 12.9465 7.08593 13.1066 7.0162 13.3738C6.94648 13.6409 7.10656 13.9141 7.37375 13.9838L9.28979 14.4838L9.62088 14.5702L9.8213 14.2929L10.9053 12.7929C11.067 12.569 11.0167 12.2565 10.7929 12.0947C10.569 11.933 10.2565 11.9833 10.0947 12.2071L9.59082 12.9045C9.53129 12.6125 9.5 12.3101 9.5 12ZM17.3003 16.4002C17.5211 16.2343 17.5656 15.9209 17.3998 15.7001C17.2339 15.4793 16.9205 15.4348 16.6997 15.6006C15.9477 16.1655 15.0136 16.5 14 16.5C13.7239 16.5 13.5 16.7239 13.5 17C13.5 17.2762 13.7239 17.5 14 17.5C15.2376 17.5 16.381 17.0907 17.3003 16.4002Z" fill="#393840"/>
</svg>
